<?xml version="1.0" standalone="no"?>
<!DOCTYPE svg PUBLIC "-//W3C//DTD SVG 20010904//EN"
 "http://www.w3.org/TR/2001/REC-SVG-20010904/DTD/svg10.dtd">
<svg version="1.0" xmlns="http://www.w3.org/2000/svg"
 width="1592.000000pt" height="1592.000000pt" viewBox="0 0 1592.000000 1592.000000"
 preserveAspectRatio="xMidYMid meet">

<g transform="translate(0.000000,1592.000000) scale(0.100000,-0.100000)"
fill="#000000" stroke="none">
<path d="M5663 14128 c4 -986 7 -4568 7 -7960 l0 -6168 399 0 399 0 153 172
c85 95 262 285 394 422 339 351 427 448 589 641 245 292 470 611 620 880 145
258 337 681 477 1047 35 92 67 167 71 165 4 -1 53 -78 109 -172 243 -404 594
-891 1024 -1420 76 -93 151 -188 167 -210 48 -67 159 -174 230 -221 226 -151
546 -184 806 -84 165 63 225 110 506 397 261 265 434 428 601 562 216 175 418
384 581 601 89 120 86 117 214 209 166 119 209 180 282 394 29 85 32 103 33
233 l1 140 66 86 c91 118 92 121 78 177 -10 40 -9 47 5 56 88 53 153 103 265
203 154 136 157 138 407 172 385 53 436 61 479 81 134 63 150 225 31 313 -27
20 -40 21 -260 20 -128 -1 -266 -5 -307 -9 -44 -3 -71 -3 -65 3 6 5 89 42 185
82 96 41 250 112 342 158 199 99 213 112 213 213 0 55 -5 73 -30 114 -35 56
-86 87 -147 87 -31 1 -137 -34 -372 -121 -182 -66 -333 -121 -337 -121 -4 0
59 64 140 142 468 456 490 481 491 576 0 56 -19 99 -65 144 -71 71 -158 76
-248 15 -64 -43 -145 -115 -366 -324 -174 -165 -291 -263 -291 -243 0 6 53
133 119 283 130 299 152 355 176 447 19 74 21 169 5 202 -38 72 -121 114 -215
106 -100 -8 -144 -67 -245 -323 -115 -290 -284 -580 -427 -735 -36 -38 -69
-70 -74 -70 -20 0 -68 106 -79 174 -24 156 -75 265 -173 372 -115 127 -237
157 -323 82 -78 -69 -82 -119 -19 -250 56 -118 95 -252 95 -330 0 -35 -11
-101 -27 -157 -24 -86 -27 -113 -28 -261 0 -91 3 -183 6 -205 l7 -40 -102 -87
-102 -86 -50 10 c-83 16 -223 13 -289 -6 -130 -39 -197 -102 -287 -273 -56
-105 -59 -110 -161 -190 -57 -45 -115 -99 -130 -120 -15 -22 -54 -105 -86
-185 -50 -125 -70 -162 -135 -246 -120 -157 -90 -165 -262 70 -168 230 -484
650 -778 1033 l-199 260 22 60 c35 92 60 191 67 264 3 36 13 91 22 121 20 71
19 228 -2 295 -8 27 -14 51 -11 53 2 2 46 12 98 22 421 82 930 418 1279 844
168 205 224 305 358 641 51 127 134 325 185 440 51 116 109 255 128 310 37
103 107 329 107 345 0 5 -19 0 -43 -10 -24 -11 -61 -22 -83 -26 l-41 -6 -52
-157 c-28 -86 -85 -232 -127 -326 -41 -93 -104 -240 -140 -326 l-66 -157 -87
-78 c-136 -124 -129 -119 -146 -104 -9 8 -15 30 -15 59 0 80 -15 80 -45 0 -16
-41 -34 -83 -42 -94 -11 -17 -13 -11 -13 50 -1 244 -112 397 -337 462 -47 13
-110 17 -328 19 -148 2 -315 4 -370 5 l-100 2 65 9 c129 17 209 39 265 74 63
37 80 41 88 19 5 -12 12 -13 53 0 94 28 138 98 139 221 0 78 -2 84 -37 135
-20 30 -42 74 -48 99 -6 25 -29 100 -51 168 -56 174 -79 321 -79 507 0 84 3
173 6 199 6 39 10 46 25 41 26 -9 66 34 74 79 11 57 -2 101 -40 134 -25 23
-32 36 -29 54 5 21 4 22 -9 6 -13 -17 -17 -16 -73 6 -32 13 -84 29 -115 36
-66 15 -224 9 -241 -8 -7 -7 -21 -51 -33 -99 -12 -49 -24 -97 -28 -108 -7 -19
-2 -20 121 -20 87 0 152 -6 205 -19 l78 -18 -8 -66 c-4 -37 -8 -152 -7 -257 0
-216 12 -289 84 -510 53 -163 59 -221 32 -312 -38 -124 -134 -202 -261 -210
-77 -6 -155 12 -281 64 -77 32 -98 36 -220 43 -74 4 -148 13 -163 21 -62 29
-75 130 -32 245 34 90 33 105 -6 68 -107 -101 -118 -270 -23 -353 46 -41 103
-55 190 -47 94 9 117 -1 162 -73 38 -61 84 -94 152 -112 31 -7 29 -8 -12 -3
-75 8 -238 50 -433 111 -99 31 -229 71 -290 90 -414 128 -628 145 -804 63 -82
-39 -148 -95 -191 -164 -19 -30 -38 -55 -42 -56 -4 0 -15 15 -24 33 l-17 32
-11 -40 c-21 -73 -67 -56 -139 52 -24 38 -64 107 -88 153 -23 47 -44 78 -46
70 -2 -9 7 -52 20 -97 27 -95 24 -95 -62 0 -67 75 -173 239 -222 342 -37 80
-95 257 -120 368 -15 68 -24 60 -42 -36 l-11 -62 -12 85 c-26 181 -37 472 -30
800 3 179 9 345 12 370 l6 46 171 -27 c125 -20 175 -24 188 -16 44 27 63 115
38 170 -11 23 -23 27 -184 52 -148 24 -172 30 -168 44 18 50 119 253 169 338
31 54 108 169 171 256 109 152 113 157 123 132 5 -14 10 -29 10 -31 0 -3 19
-45 41 -94 64 -137 78 -133 158 41 208 454 424 734 685 885 44 25 49 26 41 9
-38 -93 -67 -195 -68 -247 -3 -87 10 -92 110 -45 178 83 423 171 574 207 175
41 549 77 549 53 0 -16 -93 -99 -160 -142 -54 -35 -138 -71 -285 -123 -72 -25
-57 -67 33 -94 250 -72 597 -74 847 -4 147 41 326 122 434 194 l53 36 50 -45
c173 -156 488 -227 724 -164 118 32 113 33 141 -41 36 -96 62 -213 71 -328 9
-98 21 -132 47 -132 18 0 119 112 152 167 l27 47 24 -239 c23 -232 23 -255 14
-655 -5 -228 -12 -422 -15 -430 -5 -11 13 -27 62 -56 l68 -41 64 101 c62 99
133 257 180 404 12 39 26 72 30 72 10 0 19 -56 19 -120 0 -162 95 -36 160 211
55 212 72 336 77 569 7 285 -18 460 -110 770 -33 110 -33 118 -24 200 12 109
-4 272 -40 383 -73 234 -212 419 -462 617 l-129 102 -32 100 c-70 222 -193
413 -398 622 -220 223 -432 354 -769 475 -78 28 -146 51 -152 51 -22 0 -10
-36 30 -95 74 -110 173 -334 156 -352 -3 -3 -44 18 -91 47 -198 119 -494 243
-766 320 -556 157 -1075 179 -1480 61 -59 -17 -95 -32 -95 -41 0 -7 30 -25 66
-40 83 -34 137 -70 118 -80 -8 -4 -79 -10 -159 -14 -329 -15 -676 -94 -979
-223 -396 -168 -709 -448 -802 -715 -19 -55 -39 -91 -73 -130 -53 -59 -189
-260 -259 -383 -126 -220 -206 -435 -286 -775 -40 -171 -51 -260 -59 -488 -8
-225 -1 -341 23 -378 22 -33 33 -23 74 66 18 38 37 72 42 75 5 4 6 -63 3 -167
-4 -98 -1 -237 5 -321 l11 -149 -46 -51 c-129 -143 -198 -420 -175 -695 25
-281 80 -436 282 -792 68 -119 97 -160 163 -226 125 -125 276 -197 446 -212
l75 -7 7 -40 c4 -22 14 -103 23 -181 9 -78 27 -190 41 -250 14 -60 28 -120 31
-133 5 -18 2 -23 -8 -18 -434 190 -682 263 -869 255 -67 -3 -108 -10 -140 -24
-53 -24 -130 -98 -166 -160 -14 -24 -30 -44 -35 -44 -5 0 -9 919 -9 2263 0
1244 -3 3069 -7 4055 l-6 1792 -55 0 -55 0 6 -1792z m802 -3825 c3 -32 9 -67
11 -79 5 -20 3 -20 -45 -11 -33 7 -57 7 -72 1 -21 -10 -20 -12 23 -33 85 -41
134 -86 170 -156 l33 -66 -40 -43 c-129 -139 -178 -351 -118 -506 15 -38 28
-68 30 -66 2 2 -2 35 -9 75 -17 98 -2 176 56 295 32 66 58 105 87 129 l41 36
40 -52 c23 -29 46 -56 52 -62 7 -5 22 -34 35 -64 55 -129 63 -202 35 -306 -28
-101 -22 -169 21 -265 42 -94 44 -144 4 -186 -44 -47 -82 -32 -242 98 -54 44
-101 78 -103 75 -7 -6 91 -115 152 -170 62 -56 103 -77 149 -77 110 0 158 131
100 270 -18 43 -25 78 -25 124 0 43 9 92 25 142 14 42 25 89 25 104 0 42 -36
153 -87 268 -46 103 -46 104 -33 159 6 30 15 51 19 47 4 -5 20 -43 35 -84 39
-104 97 -210 168 -308 l60 -84 -11 -246 c-6 -136 -11 -354 -11 -485 0 -232 0
-237 -19 -227 -11 5 -58 10 -104 10 -165 0 -314 58 -423 165 -47 47 -83 99
-159 234 -195 345 -245 508 -245 797 0 252 67 439 190 529 47 35 134 74 166
75 7 0 15 -25 19 -57z m745 -223 c113 -11 213 -20 223 -20 18 0 24 -34 8 -45
-13 -7 -473 64 -485 76 -14 13 22 12 254 -11z m423 -51 c42 -7 71 -17 74 -26
11 -28 -11 -34 -83 -23 -123 19 -124 19 -124 47 0 23 3 25 33 19 17 -3 63 -10
100 -17z m2625 -574 c101 -32 142 -61 142 -101 l0 -32 -59 24 c-67 27 -225 54
-318 54 -59 0 -63 2 -63 23 0 35 13 47 61 56 60 13 149 3 237 -24z m-1221
-1739 c278 -91 492 -146 743 -190 158 -28 278 -36 534 -36 323 0 396 -14 459
-90 80 -95 47 -268 -95 -498 -64 -103 -264 -310 -349 -360 -109 -64 -227 -92
-324 -78 -57 9 -115 57 -137 114 l-15 39 63 11 c70 12 134 38 134 56 0 9 -29
13 -97 14 -159 3 -494 49 -565 77 -13 5 -18 2 -18 -9 0 -23 30 -50 79 -72 22
-10 41 -21 41 -25 0 -16 -83 -77 -112 -83 -62 -12 -144 -5 -210 18 -200 71
-459 336 -579 591 -130 276 -96 524 79 580 76 24 149 13 369 -59z m-1474 -775
c367 -336 833 -685 1102 -827 61 -31 111 -58 111 -58 1 -1 -31 -68 -72 -151
-41 -82 -74 -157 -74 -165 0 -14 27 -49 124 -165 23 -27 35 -50 30 -55 -17
-17 -163 -70 -247 -90 -47 -11 -128 -24 -181 -28 l-96 -8 -78 81 c-179 183
-380 413 -663 760 -109 132 -254 303 -323 380 l-126 140 93 84 c50 47 125 120
166 163 41 43 76 78 78 78 2 0 73 -63 156 -139z m6154 -457 c24 -15 25 -20 20
-74 -9 -83 -53 -206 -168 -465 -176 -400 -192 -454 -147 -502 63 -67 201 20
533 338 193 185 290 268 333 286 32 13 37 13 61 -5 14 -10 33 -31 41 -45 29
-51 -7 -94 -371 -444 -189 -182 -344 -339 -353 -358 -22 -46 -20 -62 10 -92
22 -22 31 -25 67 -19 23 3 219 71 435 151 216 80 401 145 411 145 25 0 60 -40
67 -77 5 -26 1 -34 -29 -57 -43 -33 -301 -153 -596 -277 -236 -99 -281 -128
-281 -178 0 -28 29 -62 65 -75 10 -4 185 0 387 9 330 15 371 15 392 1 44 -28
38 -84 -11 -109 -25 -13 -90 -24 -453 -73 -153 -21 -244 -40 -294 -63 -23 -11
-97 -70 -166 -132 -69 -61 -154 -131 -189 -155 l-64 -43 -39 66 c-21 36 -60
93 -87 127 -53 66 -233 244 -294 290 -37 29 -37 29 -15 40 29 15 67 108 81
199 19 123 -19 274 -104 415 l-38 63 66 62 c170 160 357 465 498 816 67 168
96 226 124 249 20 16 73 9 108 -14z m-1229 -474 c99 -71 171 -200 196 -348 20
-118 36 -154 128 -278 171 -233 214 -411 142 -591 -14 -35 -23 -70 -20 -78 3
-8 -25 6 -62 31 -113 77 -273 149 -418 189 -17 5 -27 177 -15 277 5 47 20 119
32 160 49 157 15 359 -94 571 -28 56 -29 58 -12 77 27 29 75 25 123 -10z
m-4638 -614 c0 -44 -52 -234 -95 -352 -52 -140 -180 -398 -270 -541 -42 -68
-166 -243 -277 -390 -247 -329 -416 -583 -500 -748 -35 -69 -66 -125 -70 -125
-4 0 -13 7 -22 15 -13 14 -13 20 -1 56 48 136 208 383 496 766 248 329 356
492 458 693 112 221 150 322 237 634 15 55 18 58 30 41 8 -10 14 -33 14 -49z
m850 -374 c0 -5 -21 -35 -47 -68 -74 -95 -205 -299 -271 -424 -125 -236 -210
-454 -318 -814 -196 -652 -349 -1032 -402 -998 -9 6 1 36 42 123 105 220 185
443 311 859 115 382 187 575 290 781 104 207 321 531 364 542 27 8 31 7 31 -1z
m-2102 -1862 c-11 -28 -23 -49 -25 -47 -4 5 34 97 41 97 3 0 -5 -23 -16 -50z"/>
<path d="M8685 7722 c-38 -20 -51 -33 -53 -54 -4 -29 28 -58 64 -58 15 0 27
-13 45 -52 73 -159 232 -338 392 -442 154 -101 367 -185 562 -221 183 -35 429
-7 584 65 127 60 267 181 336 294 29 46 31 47 69 43 46 -6 63 -1 77 24 18 34
-41 113 -94 125 -24 5 -34 1 -53 -19 -21 -23 -33 -26 -131 -32 -313 -22 -713
20 -1103 116 -200 49 -555 164 -573 185 -51 64 -53 64 -122 26z m319 -208
c467 -151 847 -216 1263 -218 139 -1 253 -4 253 -7 0 -16 -156 -163 -210 -198
-122 -79 -291 -117 -480 -108 -283 13 -635 166 -808 351 -83 90 -184 226 -167
226 4 0 71 -21 149 -46z"/>
<path d="M8910 10939 c-86 -11 -229 -52 -308 -89 -140 -65 -220 -139 -344
-319 l-52 -75 34 21 c201 121 418 183 637 183 211 0 381 -49 667 -191 143 -72
187 -89 222 -89 39 0 46 3 55 28 6 15 9 71 7 126 l-3 98 -49 45 c-63 56 -293
171 -436 217 -161 52 -279 65 -430 45z"/>
<path d="M11155 10594 c-193 -28 -330 -62 -377 -95 -29 -21 -59 -90 -78 -183
-12 -57 -11 -61 10 -78 31 -25 76 -23 247 11 381 77 619 39 869 -137 77 -54
169 -141 227 -212 l36 -45 -10 40 c-61 231 -105 326 -195 424 -109 117 -271
219 -409 255 -59 16 -261 29 -320 20z"/>
<path d="M8450 9979 c-70 -14 -165 -65 -229 -125 -58 -54 -121 -139 -121 -164
0 -45 207 -288 275 -323 17 -8 82 -20 145 -26 173 -17 400 -57 577 -102 87
-22 172 -40 190 -41 46 -2 383 160 383 184 0 34 -70 212 -109 277 -21 36 -36
67 -31 69 7 3 89 -23 132 -42 16 -7 17 -5 7 22 -13 37 -87 108 -132 127 -59
24 -369 74 -752 120 -293 35 -285 34 -335 24z m170 -143 c0 -2 -12 -28 -27
-56 -51 -98 -41 -236 23 -332 l35 -51 -85 6 c-99 7 -169 33 -214 80 -36 37
-112 165 -112 187 0 22 95 113 150 144 39 22 57 26 138 26 50 0 92 -2 92 -4z
m313 -32 c38 -11 3 -88 -50 -110 -68 -29 -133 16 -133 92 l0 37 83 -7 c45 -4
90 -9 100 -12z m361 -65 c80 -19 96 -26 128 -61 39 -39 108 -173 126 -241 10
-37 10 -38 -31 -64 -23 -15 -79 -42 -125 -61 -81 -33 -85 -33 -150 -22 -37 6
-101 19 -142 29 l-75 18 30 16 c116 60 190 236 152 360 -8 26 -13 47 -10 47 3
0 47 -10 97 -21z"/>
<path d="M10696 9648 c-52 -11 -100 -42 -114 -73 l-12 -25 67 0 66 0 -70 -72
c-94 -98 -100 -110 -108 -204 l-7 -81 88 -97 c49 -53 100 -104 114 -113 18
-12 64 -18 180 -24 206 -11 304 -23 496 -61 160 -31 162 -31 208 -14 64 24
180 102 250 167 l58 54 -12 50 c-34 140 -136 288 -232 333 -46 22 -409 93
-688 135 -220 33 -238 35 -284 25z m177 -225 c-61 -121 -41 -248 54 -340 l54
-53 -43 5 c-24 2 -69 7 -102 10 -32 3 -68 11 -80 17 -41 22 -99 74 -141 127
l-43 54 31 51 c46 74 156 183 196 193 18 5 49 7 70 5 l37 -4 -33 -65z m244 46
c68 -12 79 -22 69 -64 -11 -43 -41 -65 -90 -65 -36 0 -48 5 -65 26 -31 40 -27
114 7 114 8 0 44 -5 79 -11z m422 -90 c77 -18 102 -29 134 -58 39 -35 107
-157 107 -192 0 -25 -142 -155 -185 -169 -48 -16 -142 -8 -268 23 l-99 23 58
35 c64 38 117 105 135 172 11 42 8 146 -6 181 -7 15 -4 17 11 13 10 -3 61 -15
113 -28z"/>
<path d="M12115 9618 c-2 -7 -9 -33 -15 -58 -6 -25 -33 -117 -60 -205 -27 -88
-56 -203 -64 -255 -8 -52 -24 -156 -36 -230 -12 -74 -34 -193 -51 -264 -16
-72 -29 -131 -29 -132 0 -7 82 22 123 44 39 21 49 32 58 66 16 60 54 269 79
435 12 80 37 197 57 260 19 64 44 148 55 186 l20 70 -39 33 c-53 47 -92 67
-98 50z"/>
<path d="M12411 9313 c1 -32 3 -50 6 -40 3 11 14 17 34 17 26 0 30 -3 27 -22
-2 -18 -10 -23 -33 -23 -26 0 -31 -4 -36 -35 -4 -19 -5 -37 -3 -39 2 -2 29 -4
61 -5 52 -1 58 1 69 24 7 14 15 50 18 80 9 73 -2 86 -81 94 l-63 7 1 -58z"/>
<path d="M10489 9277 c-7 -15 -8 -34 -4 -44 6 -14 10 -9 15 22 9 48 5 57 -11
22z"/>
<path d="M5188 4604 c-5 -4 -8 -357 -8 -784 0 -623 3 -780 13 -788 19 -16 406
25 430 46 16 14 17 63 17 753 l0 739 -22 14 c-17 11 -75 16 -223 21 -110 4
-203 4 -207 -1z"/>
<path d="M2215 4476 c-173 -40 -353 -146 -459 -271 -150 -177 -225 -387 -213
-600 22 -397 280 -708 669 -807 163 -41 405 -10 570 73 55 28 63 29 195 29 83
0 158 6 188 14 215 57 407 265 471 511 26 98 26 352 1 445 -56 207 -194 388
-358 470 -96 49 -174 62 -340 58 -103 -2 -150 1 -160 9 -8 7 -57 27 -109 44
-88 30 -106 33 -245 36 -101 2 -170 -2 -210 -11z m400 -130 c125 -40 219 -98
311 -190 66 -66 89 -98 127 -176 59 -120 78 -190 84 -315 11 -213 -63 -401
-219 -557 -132 -132 -322 -208 -519 -208 -116 0 -178 12 -279 53 -176 71 -300
186 -381 352 -60 123 -81 211 -81 335 1 344 246 647 587 726 95 22 271 12 370
-20z m495 -68 c93 -27 182 -100 251 -206 90 -137 125 -275 116 -462 -6 -137
-23 -207 -77 -317 -77 -157 -222 -274 -361 -290 l-54 -6 52 60 c95 109 161
235 199 380 28 106 25 303 -5 413 -45 159 -111 280 -212 386 l-59 61 58 -4
c31 -3 73 -9 92 -15z"/>
</g>
</svg>
